# xmcd CD database file
#
# Track frame offsets:
#	150
#	15655
#	31515
#	49230
#	67434
#	79851
#	94725
#	113644
#	124291
#	142592
#	158393
#	175259
#	192148
#
# Disc length: 2790 seconds
#
# Revision: 0
# Processed by: cddbd v1.5.2PL0 Copyright (c) Steve Scherf et al.
# Submitted via: CDex 1.79
#
DISCID=9f0ae40d
DTITLE=Malia - Young Bones
DYEAR=2007
DGENRE=Jazz
TTITLE0=Malia - Mr Candy
TTITLE1=Malia - Two Fugitives
TTITLE2=Malia - Wonderland
TTITLE3=Malia - City promises
TTITLE4=Malia - Paul Kee
TTITLE5=Malia - No Surprises
TTITLE6=Malia - Rainbows
TTITLE7=Malia - Plus Je T'Embrasse
TTITLE8=Malia - Salmon Colored Man
TTITLE9=Malia - Richer Than Bill Gates
TTITLE10=Malia - The Stem, The Thorn And The Rose
TTITLE11=Malia - The Little Black Bird
TTITLE12=Malia - Young Bones
EXTD=YEAR: 2007
EXTT0=
EXTT1=
EXTT2=
EXTT3=
EXTT4=
EXTT5=
EXTT6=
EXTT7=
EXTT8=
EXTT9=
EXTT10=
EXTT11=
EXTT12=
PLAYORDER=
